<svg width="124" height="53" viewBox="0 0 124 53" fill="none" xmlns="http://www.w3.org/2000/svg">
<g clip-path="url(#clip0_3_3379)">
<path d="M30.7774 23.4882L28.7436 35.4606C28.323 37.6153 26.9067 38.1982 25.6496 38.1982H16.2265L20.1966 16.27C16.232 14.4541 12.1845 13.2683 8.96142 13.2683C5.89467 13.2683 3.40374 14.0994 1.74874 16.0895C0.581254 17.5042 0 19.2503 0 21.3283C0 27.5622 4.89581 36.2129 13.2744 43.2694C20.7444 49.5073 28.9619 53.0001 34.9424 53.0001C37.9258 53.0001 40.3325 52.0847 41.9119 50.2583C43.1555 48.8434 43.651 47.0109 43.651 44.9344C43.651 38.8765 38.7215 30.3839 30.7774 23.4882Z" fill="#0099F8"/>
<path d="M13.8599 0.29395C12.3645 0.29395 11.1214 1.29922 10.7901 2.87709L9.46387 10.1047H21.3141L16.2265 38.1981H25.6495C26.9067 38.1981 28.323 37.6152 28.7435 35.4605L33.052 10.1047H41.5749C43.0762 10.1047 44.3166 9.10644 44.6484 7.52874L45.9789 0.293945L13.8599 0.29395Z" fill="#001E82"/>
<path d="M70.3474 16.3108V8.92343H62.6788V16.3108H60.6715V0.293701H62.6788V6.98065H70.3474V0.293701H72.3547V16.3108H70.3474Z" fill="#001E82"/>
<path d="M84.6232 11.2279H76.5485C76.5485 12.267 76.9546 13.3966 77.6538 14.0968C78.1724 14.6165 78.8717 14.9102 79.7514 14.9102C80.6536 14.9102 81.3978 14.6617 81.8715 14.1645C82.1872 13.8483 82.3901 13.5321 82.5481 12.9222H84.4201C84.2623 14.0518 83.5855 15.1134 82.6609 15.7461C81.849 16.2883 80.8341 16.6045 79.7514 16.6045C78.15 16.6045 76.8418 15.9268 75.9623 14.8875C75.0149 13.7806 74.5413 12.267 74.5413 10.6405C74.5413 9.26237 74.7893 8.04251 75.421 6.98065C76.2328 5.60256 77.7439 4.58594 79.7287 4.58594C81.1949 4.58594 82.3676 5.15086 83.2022 6.0545C84.1268 7.07113 84.6681 8.53946 84.6457 10.0758L84.6232 11.2279ZM81.9843 7.25185C81.5106 6.61919 80.7437 6.21249 79.7287 6.21249C77.6538 6.21249 76.6389 7.90702 76.5937 9.57859H82.6833C82.6833 8.72019 82.4353 7.86178 81.9843 7.25185Z" fill="#001E82"/>
<path d="M95.9895 16.469C94.9745 16.469 94.3431 15.7009 94.3431 14.7295H94.298C93.6439 15.8816 92.2228 16.6045 90.6216 16.6045C88.0052 16.6045 86.697 14.8425 86.697 13.0802C86.697 11.6118 87.6443 9.69158 90.7569 9.51085L94.2303 9.30762V8.47172C94.2303 7.90703 94.1627 7.20662 93.6439 6.73218C93.2605 6.37072 92.6965 6.14476 91.7719 6.14476C90.7344 6.14476 90.0803 6.43847 89.6967 6.82266C89.3359 7.18411 89.133 7.63582 89.133 8.20051H87.261C87.2834 7.16138 87.667 6.41596 88.2533 5.80603C89.0202 4.99264 90.3735 4.58594 91.7719 4.58594C93.9823 4.58594 95.2453 5.53482 95.7866 6.77741C96.012 7.29686 96.1248 7.88429 96.1248 8.53946V14.0743C96.1248 14.6842 96.3729 14.8424 96.7564 14.8424C96.9593 14.8424 97.2526 14.7747 97.2526 14.7747V16.1978C96.8465 16.401 96.4632 16.469 95.9895 16.469ZM94.2303 10.7987L91.1629 10.9792C90.0127 11.0472 88.6593 11.5893 88.6593 13.0352C88.6593 14.0518 89.2909 15.0005 90.9148 15.0005C91.7943 15.0005 92.6516 14.7067 93.2605 14.0743C93.9371 13.3739 94.2303 12.425 94.2303 11.4764V10.7987Z" fill="#001E82"/>
<path d="M102.033 16.4463C100.364 16.4463 99.6425 15.4524 99.6425 13.6451V0H101.56V13.5321C101.56 14.3003 101.808 14.7068 102.597 14.7068C103.228 14.7068 103.386 14.6842 103.386 14.6842V16.3108C103.386 16.3108 102.958 16.4463 102.033 16.4463Z" fill="#001E82"/>
<path d="M109.859 16.4691C107.401 16.4691 106.724 14.9103 106.724 13.374V6.52906H104.514V4.87977H106.724V1.96561L108.641 1.51367V4.87977H112.024V6.52906H108.641V13.148C108.641 14.2551 109.115 14.7069 110.175 14.7069C110.987 14.7069 112.137 14.5036 112.137 14.5036V16.1527C111.618 16.2884 110.919 16.4691 109.859 16.4691Z" fill="#001E82"/>
<path d="M122.083 16.3108V9.05916C122.083 7.34212 121.384 6.3255 119.579 6.3255C118.474 6.3255 117.595 7.04841 117.098 8.08755C116.715 8.92344 116.692 10.1208 116.692 11.0019V16.3108H114.775V0H116.692V6.39324C117.369 5.21862 118.745 4.58595 120.03 4.58595C122.624 4.58595 124 6.14476 124 8.78795V16.3108L122.083 16.3108Z" fill="#001E82"/>
</g>
<defs>
<clipPath id="clip0_3_3379">
<rect width="124" height="53" fill="white"/>
</clipPath>
</defs>
</svg>
